<?xml version="1.0" standalone="no"?><svg xmlns:xlink="http://www.w3.org/1999/xlink" xmlns="http://www.w3.org/2000/svg" viewBox="0 0 4000 2222.24087144068" preserveAspectRatio="xMaxYMax slice"><g transform="scale(3.356859322417946)"><rect x="0" y="0" width="1191.6000000000001" height="662" fill="#414141"/><path d="M 602.42 6.62 A 52.96 52.96 0 0 1  655.38 59.58 L 602.42 6.62 A 52.96 52.96 0 0 0 655.38 59.58" fill="#75615f"/><path d="M 867.22 59.58 A 52.96 52.96 0 0 1  920.1800000000001 6.62 L 867.22 59.58 A 52.96 52.96 0 0 0 920.1800000000001 6.62" fill="#574f4e"/><path d="M 933.42 59.58 A 52.96 52.96 0 0 1  986.38 6.62 L 933.42 59.58 A 52.96 52.96 0 0 0 986.38 6.62" fill="#812e3f"/><path d="M 271.42 125.78 A 52.96 52.96 0 0 1  324.38 72.82 L 271.42 125.78 A 52.96 52.96 0 0 0 324.38 72.82" fill="#673640"/><path d="M 734.82 72.82 A 52.96 52.96 0 0 1  787.7800000000001 125.78 L 734.82 72.82 A 52.96 52.96 0 0 0 787.7800000000001 125.78" fill="#b08480"/><path d="M 999.62 125.78 A 52.96 52.96 0 0 1  1052.58 72.82 L 999.62 125.78 A 52.96 52.96 0 0 0 1052.58 72.82" fill="#d5163c"/><path d="M 1132.02 72.82 A 52.96 52.96 0 0 1  1184.98 125.78 L 1132.02 72.82 A 52.96 52.96 0 0 0 1184.98 125.78" fill="#141414"/><path d="M 470.02 191.98000000000002 A 52.96 52.96 0 0 1  522.98 139.02 L 470.02 191.98000000000002 A 52.96 52.96 0 0 0 522.98 139.02" fill="#6c3440"/><path d="M 403.82 205.22 A 52.96 52.96 0 0 1  456.78 258.18 L 403.82 205.22 A 52.96 52.96 0 0 0 456.78 258.18" fill="#987672"/><path d="M 536.22 324.38 A 52.96 52.96 0 0 1  589.1800000000001 271.42 L 536.22 324.38 A 52.96 52.96 0 0 0 589.1800000000001 271.42" fill="#872d3f"/><path d="M 602.42 271.42 A 52.96 52.96 0 0 1  655.38 324.38 L 602.42 271.42 A 52.96 52.96 0 0 0 655.38 324.38" fill="#494646"/><path d="M 668.62 271.42 A 52.96 52.96 0 0 1  721.58 324.38 L 668.62 271.42 A 52.96 52.96 0 0 0 721.58 324.38" fill="#383838"/><path d="M 205.22 337.62 A 52.96 52.96 0 0 1  258.18 390.58 L 205.22 337.62 A 52.96 52.96 0 0 0 258.18 390.58" fill="#79313f"/><path d="M 403.82 337.62 A 52.96 52.96 0 0 1  456.78 390.58 L 403.82 337.62 A 52.96 52.96 0 0 0 456.78 390.58" fill="#212121"/><path d="M 470.02 337.62 A 52.96 52.96 0 0 1  522.98 390.58 L 470.02 337.62 A 52.96 52.96 0 0 0 522.98 390.58" fill="#393939"/><path d="M 139.02 403.82 A 52.96 52.96 0 0 1  191.98000000000002 456.78 L 139.02 403.82 A 52.96 52.96 0 0 0 191.98000000000002 456.78" fill="#1a1a1a"/><path d="M 271.42 456.78 A 52.96 52.96 0 0 1  324.38 403.82 L 271.42 456.78 A 52.96 52.96 0 0 0 324.38 403.82" fill="#483f41"/><path d="M 999.62 403.82 A 52.96 52.96 0 0 1  1052.58 456.78 L 999.62 403.82 A 52.96 52.96 0 0 0 1052.58 456.78" fill="#343434"/><path d="M 403.82 470.02 A 52.96 52.96 0 0 1  456.78 522.98 L 403.82 470.02 A 52.96 52.96 0 0 0 456.78 522.98" fill="#a67f7b"/><path d="M 668.62 470.02 A 52.96 52.96 0 0 1  721.58 522.98 L 668.62 470.02 A 52.96 52.96 0 0 0 721.58 522.98" fill="#c11c3d"/><path d="M 801.02 522.98 A 52.96 52.96 0 0 1  853.98 470.02 L 801.02 522.98 A 52.96 52.96 0 0 0 853.98 470.02" fill="#020202"/><path d="M 1132.02 470.02 A 52.96 52.96 0 0 1  1184.98 522.98 L 1132.02 470.02 A 52.96 52.96 0 0 0 1184.98 522.98" fill="#a5243e"/><path d="M 205.22 589.1800000000001 A 52.96 52.96 0 0 1  258.18 536.22 L 205.22 589.1800000000001 A 52.96 52.96 0 0 0 258.18 536.22" fill="#3b3b3b"/><path d="M 867.22 589.1800000000001 A 52.96 52.96 0 0 1  920.1800000000001 536.22 L 867.22 589.1800000000001 A 52.96 52.96 0 0 0 920.1800000000001 536.22" fill="#73323f"/></g></svg>