<?xml version="1.0" standalone="no"?><svg xmlns:xlink="http://www.w3.org/1999/xlink" xmlns="http://www.w3.org/2000/svg" viewBox="0 0 4000 2250.016994086058" preserveAspectRatio="xMaxYMax slice"><g transform="scale(3.398817211610359)"><rect x="0" y="0" width="1176.888888888889" height="662" fill="#414141"/><path d="M 228.02 7.36 A 58.84 58.84 0 0 1  286.86 66.2 L 228.02 7.36 A 58.84 58.84 0 0 0 286.86 66.2" fill="#161616"/><path d="M 375.13 66.2 A 58.84 58.84 0 0 1  433.97 7.36 L 375.13 66.2 A 58.84 58.84 0 0 0 433.97 7.36" fill="#6c3540"/><path d="M 448.69 66.2 A 58.84 58.84 0 0 1  507.53 7.36 L 448.69 66.2 A 58.84 58.84 0 0 0 507.53 7.36" fill="#232323"/><path d="M 595.8 66.2 A 58.84 58.84 0 0 1  654.64 7.36 L 595.8 66.2 A 58.84 58.84 0 0 0 654.64 7.36" fill="#0f0f0f"/><path d="M 816.47 66.2 A 58.84 58.84 0 0 1  875.3100000000001 7.36 L 816.47 66.2 A 58.84 58.84 0 0 0 875.3100000000001 7.36" fill="#896d6a"/><path d="M 963.58 66.2 A 58.84 58.84 0 0 1  1022.4200000000001 7.36 L 963.58 66.2 A 58.84 58.84 0 0 0 1022.4200000000001 7.36" fill="#c3908b"/><path d="M 1110.69 7.36 A 58.84 58.84 0 0 1  1169.53 66.2 L 1110.69 7.36 A 58.84 58.84 0 0 0 1169.53 66.2" fill="#121212"/><path d="M 7.36 139.75 A 58.84 58.84 0 0 1  66.2 80.91 L 7.36 139.75 A 58.84 58.84 0 0 0 66.2 80.91" fill="#101010"/><path d="M 375.13 139.75 A 58.84 58.84 0 0 1  433.97 80.91 L 375.13 139.75 A 58.84 58.84 0 0 0 433.97 80.91" fill="#2b2b2b"/><path d="M 448.69 80.91 A 58.84 58.84 0 0 1  507.53 139.75 L 448.69 80.91 A 58.84 58.84 0 0 0 507.53 139.75" fill="#7d303f"/><path d="M 595.8 139.75 A 58.84 58.84 0 0 1  654.64 80.91 L 595.8 139.75 A 58.84 58.84 0 0 0 654.64 80.91" fill="#1f1f1f"/><path d="M 816.47 139.75 A 58.84 58.84 0 0 1  875.3100000000001 80.91 L 816.47 139.75 A 58.84 58.84 0 0 0 875.3100000000001 80.91" fill="#ba1e3d"/><path d="M 963.58 80.91 A 58.84 58.84 0 0 1  1022.4200000000001 139.75 L 963.58 80.91 A 58.84 58.84 0 0 0 1022.4200000000001 139.75" fill="#313131"/><path d="M 1037.13 80.91 A 58.84 58.84 0 0 1  1095.97 139.75 L 1037.13 80.91 A 58.84 58.84 0 0 0 1095.97 139.75" fill="#151515"/><path d="M 1110.69 139.75 A 58.84 58.84 0 0 1  1169.53 80.91 L 1110.69 139.75 A 58.84 58.84 0 0 0 1169.53 80.91" fill="#da9e98"/><path d="M 80.91 154.47 A 58.84 58.84 0 0 1  139.75 213.31 L 80.91 154.47 A 58.84 58.84 0 0 0 139.75 213.31" fill="#bd1d3d"/><path d="M 375.13 213.31 A 58.84 58.84 0 0 1  433.97 154.47 L 375.13 213.31 A 58.84 58.84 0 0 0 433.97 154.47" fill="#605452"/><path d="M 595.8 154.47 A 58.84 58.84 0 0 1  654.64 213.31 L 595.8 154.47 A 58.84 58.84 0 0 0 654.64 213.31" fill="#050505"/><path d="M 742.91 213.31 A 58.84 58.84 0 0 1  801.75 154.47 L 742.91 213.31 A 58.84 58.84 0 0 0 801.75 154.47" fill="#c21c3d"/><path d="M 963.58 154.47 A 58.84 58.84 0 0 1  1022.4200000000001 213.31 L 963.58 154.47 A 58.84 58.84 0 0 0 1022.4200000000001 213.31" fill="#040404"/><path d="M 1037.13 213.31 A 58.84 58.84 0 0 1  1095.97 154.47 L 1037.13 213.31 A 58.84 58.84 0 0 0 1095.97 154.47" fill="#a77f7b"/><path d="M 1110.69 213.31 A 58.84 58.84 0 0 1  1169.53 154.47 L 1110.69 213.31 A 58.84 58.84 0 0 0 1169.53 154.47" fill="#393939"/><path d="M 80.91 286.86 A 58.84 58.84 0 0 1  139.75 228.02 L 80.91 286.86 A 58.84 58.84 0 0 0 139.75 228.02" fill="#74605e"/><path d="M 375.13 286.86 A 58.84 58.84 0 0 1  433.97 228.02 L 375.13 286.86 A 58.84 58.84 0 0 0 433.97 228.02" fill="#171717"/><path d="M 816.47 228.02 A 58.84 58.84 0 0 1  875.3100000000001 286.86 L 816.47 228.02 A 58.84 58.84 0 0 0 875.3100000000001 286.86" fill="#922a3e"/><path d="M 890.02 286.86 A 58.84 58.84 0 0 1  948.86 228.02 L 890.02 286.86 A 58.84 58.84 0 0 0 948.86 228.02" fill="#564e4d"/><path d="M 301.58 301.58 A 58.84 58.84 0 0 1  360.41999999999996 360.41999999999996 L 301.58 301.58 A 58.84 58.84 0 0 0 360.41999999999996 360.41999999999996" fill="#0c0c0c"/><path d="M 375.13 360.41999999999996 A 58.84 58.84 0 0 1  433.97 301.58 L 375.13 360.41999999999996 A 58.84 58.84 0 0 0 433.97 301.58" fill="#94293e"/><path d="M 522.24 301.58 A 58.84 58.84 0 0 1  581.08 360.41999999999996 L 522.24 301.58 A 58.84 58.84 0 0 0 581.08 360.41999999999996" fill="#8d2b3f"/><path d="M 595.8 301.58 A 58.84 58.84 0 0 1  654.64 360.41999999999996 L 595.8 301.58 A 58.84 58.84 0 0 0 654.64 360.41999999999996" fill="#c01c3d"/><path d="M 154.47 375.13 A 58.84 58.84 0 0 1  213.31 433.97 L 154.47 375.13 A 58.84 58.84 0 0 0 213.31 433.97" fill="#74605e"/><path d="M 375.13 375.13 A 58.84 58.84 0 0 1  433.97 433.97 L 375.13 375.13 A 58.84 58.84 0 0 0 433.97 433.97" fill="#d9153c"/><path d="M 448.69 375.13 A 58.84 58.84 0 0 1  507.53 433.97 L 448.69 375.13 A 58.84 58.84 0 0 0 507.53 433.97" fill="#4c4847"/><path d="M 816.47 433.97 A 58.84 58.84 0 0 1  875.3100000000001 375.13 L 816.47 433.97 A 58.84 58.84 0 0 0 875.3100000000001 375.13" fill="#cb958f"/><path d="M 890.02 433.97 A 58.84 58.84 0 0 1  948.86 375.13 L 890.02 433.97 A 58.84 58.84 0 0 0 948.86 375.13" fill="#584f4e"/><path d="M 228.02 507.53 A 58.84 58.84 0 0 1  286.86 448.69 L 228.02 507.53 A 58.84 58.84 0 0 0 286.86 448.69" fill="#111111"/><path d="M 669.36 448.69 A 58.84 58.84 0 0 1  728.2 507.53 L 669.36 448.69 A 58.84 58.84 0 0 0 728.2 507.53" fill="#343434"/><path d="M 742.91 448.69 A 58.84 58.84 0 0 1  801.75 507.53 L 742.91 448.69 A 58.84 58.84 0 0 0 801.75 507.53" fill="#373737"/><path d="M 816.47 507.53 A 58.84 58.84 0 0 1  875.3100000000001 448.69 L 816.47 507.53 A 58.84 58.84 0 0 0 875.3100000000001 448.69" fill="#7d303f"/><path d="M 1037.13 448.69 A 58.84 58.84 0 0 1  1095.97 507.53 L 1037.13 448.69 A 58.84 58.84 0 0 0 1095.97 507.53" fill="#d49a94"/><path d="M 154.47 581.08 A 58.84 58.84 0 0 1  213.31 522.24 L 154.47 581.08 A 58.84 58.84 0 0 0 213.31 522.24" fill="#393939"/><path d="M 228.02 581.08 A 58.84 58.84 0 0 1  286.86 522.24 L 228.02 581.08 A 58.84 58.84 0 0 0 286.86 522.24" fill="#574f4e"/><path d="M 301.58 581.08 A 58.84 58.84 0 0 1  360.41999999999996 522.24 L 301.58 581.08 A 58.84 58.84 0 0 0 360.41999999999996 522.24" fill="#242424"/><path d="M 375.13 522.24 A 58.84 58.84 0 0 1  433.97 581.08 L 375.13 522.24 A 58.84 58.84 0 0 0 433.97 581.08" fill="#242424"/><path d="M 522.24 522.24 A 58.84 58.84 0 0 1  581.08 581.08 L 522.24 522.24 A 58.84 58.84 0 0 0 581.08 581.08" fill="#2b2b2b"/><path d="M 669.36 522.24 A 58.84 58.84 0 0 1  728.2 581.08 L 669.36 522.24 A 58.84 58.84 0 0 0 728.2 581.08" fill="#a4243e"/><path d="M 1037.13 522.24 A 58.84 58.84 0 0 1  1095.97 581.08 L 1037.13 522.24 A 58.84 58.84 0 0 0 1095.97 581.08" fill="#a3253e"/><path d="M 301.58 595.8 A 58.84 58.84 0 0 1  360.41999999999996 654.64 L 301.58 595.8 A 58.84 58.84 0 0 0 360.41999999999996 654.64" fill="#97283e"/><path d="M 522.24 654.64 A 58.84 58.84 0 0 1  581.08 595.8 L 522.24 654.64 A 58.84 58.84 0 0 0 581.08 595.8" fill="#9d7975"/><path d="M 816.47 595.8 A 58.84 58.84 0 0 1  875.3100000000001 654.64 L 816.47 595.8 A 58.84 58.84 0 0 0 875.3100000000001 654.64" fill="#e7a69f"/><path d="M 963.58 654.64 A 58.84 58.84 0 0 1  1022.4200000000001 595.8 L 963.58 654.64 A 58.84 58.84 0 0 0 1022.4200000000001 595.8" fill="#9f7a76"/><path d="M 1037.13 595.8 A 58.84 58.84 0 0 1  1095.97 654.64 L 1037.13 595.8 A 58.84 58.84 0 0 0 1095.97 654.64" fill="#b48782"/><path d="M 1110.69 595.8 A 58.84 58.84 0 0 1  1169.53 654.64 L 1110.69 595.8 A 58.84 58.84 0 0 0 1169.53 654.64" fill="#b78984"/></g></svg>