<?xml version="1.0" standalone="no"?><svg xmlns:xlink="http://www.w3.org/1999/xlink" xmlns="http://www.w3.org/2000/svg" viewBox="0 0 4000 2400.007250777193" preserveAspectRatio="xMaxYMax slice"><g transform="scale(3.6253885963401706)"><rect x="0" y="0" width="1103.3333333333333" height="662" fill="#587b7f"/><circle cx="82.745" cy="27.585" r="5.515" fill="#949965"/><circle cx="193.08499999999998" cy="27.585" r="5.515" fill="#455559"/><circle cx="468.91499999999996" cy="27.585" r="5.515" fill="#d2cfca"/><circle cx="524.085" cy="27.585" r="5.515" fill="#aab4b2"/><circle cx="855.085" cy="27.585" r="5.515" fill="#c4b151"/><circle cx="82.745" cy="82.745" r="6.045" fill="#608084"/><circle cx="193.08499999999998" cy="82.745" r="7.105" fill="#425054"/><circle cx="358.585" cy="82.755" r="8.695" fill="#607f7c"/><circle cx="413.755" cy="82.755" r="9.225" fill="#4c6467"/><circle cx="468.915" cy="82.755" r="9.755" fill="#909767"/><circle cx="524.0799999999999" cy="82.75" r="9.93" fill="#c7b250"/><circle cx="634.42" cy="82.75" r="9.93" fill="#a9b3b1"/><circle cx="689.585" cy="82.755" r="9.755" fill="#879c9c"/><circle cx="744.755" cy="82.755" r="9.225" fill="#b7ab56"/><circle cx="855.0849999999999" cy="82.755" r="8.165" fill="#ddbd46"/><circle cx="1075.7450000000001" cy="82.745" r="6.045" fill="#658487"/><circle cx="524.085" cy="137.915" r="14.345" fill="#3b4144"/><circle cx="579.255" cy="137.915" r="14.345" fill="#5d7d7d"/><circle cx="799.91" cy="137.91" r="11.87" fill="#d7bb49"/><circle cx="855.085" cy="137.915" r="10.815" fill="#919767"/><circle cx="910.255" cy="137.915" r="9.755" fill="#829899"/><circle cx="965.4150000000001" cy="137.915" r="8.695" fill="#768a72"/><circle cx="1020.585" cy="137.915" r="7.635" fill="#d4b94a"/><circle cx="1075.7450000000001" cy="137.915" r="6.575" fill="#455659"/><circle cx="27.585" cy="193.08499999999998" r="5.515" fill="#d3b84a"/><circle cx="303.41999999999996" cy="193.08" r="13.46" fill="#b3a958"/><circle cx="413.75" cy="193.08999999999997" r="16.64" fill="#96a6a5"/><circle cx="634.415" cy="193.085" r="18.755" fill="#cccbc7"/><circle cx="910.25" cy="193.08" r="11.87" fill="#b4bab8"/><circle cx="965.415" cy="193.085" r="10.285" fill="#949966"/><circle cx="1075.7450000000001" cy="193.08499999999998" r="7.105" fill="#bcad54"/><circle cx="27.585" cy="248.24499999999998" r="5.515" fill="#495e62"/><circle cx="193.08" cy="248.25" r="11.87" fill="#6f8b8d"/><circle cx="248.25" cy="248.25" r="13.99" fill="#abb4b2"/><circle cx="303.42" cy="248.25" r="16.11" fill="#9facab"/><circle cx="358.58500000000004" cy="248.245" r="18.225" fill="#425053"/><circle cx="1075.745" cy="248.245" r="7.635" fill="#557579"/><circle cx="82.755" cy="303.415" r="8.165" fill="#7a9394"/><circle cx="137.915" cy="303.415" r="10.815" fill="#557478"/><circle cx="468.92" cy="303.42" r="26.7" fill="#d9bc48"/><circle cx="855.085" cy="303.415" r="18.755" fill="#3c4548"/><circle cx="1075.7549999999999" cy="303.415" r="8.165" fill="#84916c"/><circle cx="27.585" cy="358.585" r="5.515" fill="#3f4a4d"/><circle cx="193.08" cy="358.58" r="13.46" fill="#bdc1be"/><circle cx="358.58500000000004" cy="358.58500000000004" r="21.405" fill="#485b5f"/><circle cx="799.915" cy="358.58500000000004" r="21.405" fill="#3d4649"/><circle cx="855.085" cy="358.585" r="18.755" fill="#93a4a4"/><circle cx="1075.7549999999999" cy="358.58500000000004" r="8.165" fill="#8e9668"/><circle cx="82.755" cy="413.755" r="8.165" fill="#c1b052"/><circle cx="137.915" cy="413.755" r="10.815" fill="#bbbfbc"/><circle cx="248.25" cy="413.75" r="16.11" fill="#4d6569"/><circle cx="413.755" cy="413.755" r="24.055" fill="#526f73"/><circle cx="524.085" cy="413.755" r="27.585" fill="#c8c8c4"/><circle cx="744.755" cy="413.755" r="24.055" fill="#94a4a4"/><circle cx="799.915" cy="413.755" r="21.405" fill="#3b4144"/><circle cx="1020.585" cy="413.755" r="10.815" fill="#7d9596"/><circle cx="1075.7549999999999" cy="413.755" r="8.165" fill="#dfbf45"/><circle cx="27.585" cy="468.91499999999996" r="5.515" fill="#3c4346"/><circle cx="468.91499999999996" cy="468.91499999999996" r="22.465" fill="#93a4a3"/><circle cx="579.25" cy="468.92" r="23.17" fill="#425053"/><circle cx="689.585" cy="468.91499999999996" r="22.465" fill="#8f9668"/><circle cx="855.08" cy="468.92" r="16.11" fill="#577a7e"/><circle cx="965.41" cy="468.91" r="11.87" fill="#425053"/><circle cx="27.585" cy="524.085" r="5.515" fill="#889c9d"/><circle cx="137.915" cy="524.085" r="8.695" fill="#445356"/><circle cx="193.085" cy="524.0849999999999" r="10.285" fill="#b9ac55"/><circle cx="468.915" cy="524.085" r="18.225" fill="#debe46"/><circle cx="579.245" cy="524.085" r="18.755" fill="#c9c9c5"/><circle cx="689.585" cy="524.085" r="18.225" fill="#3a4043"/><circle cx="855.08" cy="524.08" r="13.46" fill="#d6ba49"/><circle cx="910.25" cy="524.08" r="11.87" fill="#89946a"/><circle cx="1020.585" cy="524.085" r="8.695" fill="#6a8477"/><circle cx="193.08499999999998" cy="579.255" r="8.695" fill="#b5bbb8"/><circle cx="413.75" cy="579.25" r="12.93" fill="#a1aeac"/><circle cx="468.92" cy="579.25" r="13.99" fill="#445357"/><circle cx="524.085" cy="579.255" r="14.345" fill="#cab44e"/><circle cx="579.255" cy="579.255" r="14.345" fill="#527074"/><circle cx="689.58" cy="579.25" r="13.99" fill="#6d8576"/><circle cx="910.255" cy="579.255" r="9.755" fill="#b7ab56"/><circle cx="1075.7450000000001" cy="579.245" r="6.575" fill="#5e7f83"/><circle cx="137.915" cy="634.4150000000001" r="6.575" fill="#577a7e"/><circle cx="303.415" cy="634.415" r="8.165" fill="#4b6164"/><circle cx="413.755" cy="634.4150000000001" r="9.225" fill="#435255"/><circle cx="468.915" cy="634.415" r="9.755" fill="#bdc1bd"/><circle cx="744.755" cy="634.4150000000001" r="9.225" fill="#46575b"/><circle cx="855.0849999999999" cy="634.415" r="8.165" fill="#d7bb49"/></g></svg>