<?xml version="1.0" standalone="no"?><svg xmlns:xlink="http://www.w3.org/1999/xlink" xmlns="http://www.w3.org/2000/svg" viewBox="0 0 4000 2400.007250777193" preserveAspectRatio="xMaxYMax slice"><g transform="scale(3.6253885963401706)"><rect x="0" y="0" width="1103.3333333333333" height="662" fill="#587b7f"/><circle cx="137.915" cy="27.585" r="5.515" fill="#8e9668"/><circle cx="468.91499999999996" cy="27.585" r="5.515" fill="#899d9d"/><circle cx="634.415" cy="27.585" r="5.515" fill="#bbad55"/><circle cx="1020.585" cy="27.585" r="5.515" fill="#4f6a6e"/><circle cx="248.245" cy="82.745" r="7.635" fill="#9caaa9"/><circle cx="303.415" cy="82.755" r="8.165" fill="#5c7d7d"/><circle cx="358.585" cy="82.755" r="8.695" fill="#c7b250"/><circle cx="634.42" cy="82.75" r="9.93" fill="#cab44e"/><circle cx="855.0849999999999" cy="82.755" r="8.165" fill="#3b4144"/><circle cx="965.415" cy="82.745" r="7.105" fill="#899d9d"/><circle cx="1020.585" cy="82.745" r="6.575" fill="#c0af53"/><circle cx="137.915" cy="137.915" r="7.635" fill="#c5c6c2"/><circle cx="689.58" cy="137.92000000000002" r="13.99" fill="#3b4144"/><circle cx="137.915" cy="193.08499999999998" r="8.695" fill="#537074"/><circle cx="193.085" cy="193.085" r="10.285" fill="#b6bcb9"/><circle cx="303.41999999999996" cy="193.08" r="13.46" fill="#547377"/><circle cx="358.58" cy="193.08" r="15.05" fill="#7c9495"/><circle cx="579.245" cy="193.085" r="18.755" fill="#618184"/><circle cx="634.415" cy="193.085" r="18.755" fill="#46575b"/><circle cx="689.585" cy="193.085" r="18.225" fill="#5d7e82"/><circle cx="744.75" cy="193.08999999999997" r="16.64" fill="#748e90"/><circle cx="910.25" cy="193.08" r="11.87" fill="#393f42"/><circle cx="137.915" cy="248.255" r="9.755" fill="#393e41"/><circle cx="248.25" cy="248.25" r="13.99" fill="#4a5f62"/><circle cx="358.58500000000004" cy="248.245" r="18.225" fill="#56787c"/><circle cx="579.25" cy="248.25" r="23.17" fill="#7f8f6e"/><circle cx="965.41" cy="248.25" r="11.87" fill="#b2a859"/><circle cx="1020.585" cy="248.255" r="9.755" fill="#b1b8b6"/><circle cx="1075.745" cy="248.245" r="7.635" fill="#8c9f9f"/><circle cx="27.585" cy="303.41499999999996" r="5.515" fill="#bcc0bd"/><circle cx="82.755" cy="303.415" r="8.165" fill="#708b8e"/><circle cx="468.92" cy="303.42" r="26.7" fill="#b1b9b6"/><circle cx="855.085" cy="303.415" r="18.755" fill="#6d8676"/><circle cx="1020.585" cy="303.415" r="10.815" fill="#799193"/><circle cx="1075.7549999999999" cy="303.415" r="8.165" fill="#3e484b"/><circle cx="27.585" cy="358.585" r="5.515" fill="#4e676b"/><circle cx="82.755" cy="358.58500000000004" r="8.165" fill="#56777b"/><circle cx="303.415" cy="358.585" r="18.755" fill="#3b4346"/><circle cx="468.92" cy="358.58" r="26.7" fill="#4b6164"/><circle cx="634.4150000000001" cy="358.585" r="27.585" fill="#3b4346"/><circle cx="689.58" cy="358.58" r="26.7" fill="#3c4447"/><circle cx="910.25" cy="358.58000000000004" r="16.11" fill="#4d6568"/><circle cx="965.4200000000001" cy="358.58" r="13.46" fill="#9f9e61"/><circle cx="248.25" cy="413.75" r="16.11" fill="#6f8775"/><circle cx="413.755" cy="413.755" r="24.055" fill="#b6aa57"/><circle cx="634.4150000000001" cy="413.755" r="27.585" fill="#6d8a8c"/><circle cx="1075.7549999999999" cy="413.755" r="8.165" fill="#93a3a3"/><circle cx="137.915" cy="468.915" r="9.755" fill="#728d8f"/><circle cx="193.08" cy="468.91" r="11.87" fill="#bdae54"/><circle cx="248.25" cy="468.92" r="13.99" fill="#56787b"/><circle cx="303.42" cy="468.92" r="16.11" fill="#506c70"/><circle cx="358.58500000000004" cy="468.915" r="18.225" fill="#b0a759"/><circle cx="965.41" cy="468.91" r="11.87" fill="#a2a05f"/><circle cx="1075.745" cy="468.91499999999996" r="7.635" fill="#3d4548"/><circle cx="82.745" cy="524.085" r="7.105" fill="#d5b94a"/><circle cx="248.25" cy="524.08" r="11.87" fill="#557679"/><circle cx="579.245" cy="524.085" r="18.755" fill="#d7ba49"/><circle cx="799.92" cy="524.0799999999999" r="15.05" fill="#69878a"/><circle cx="855.08" cy="524.08" r="13.46" fill="#5d7e7d"/><circle cx="1020.585" cy="524.085" r="8.695" fill="#b8ab56"/><circle cx="1075.7450000000001" cy="524.085" r="7.105" fill="#414e51"/><circle cx="27.585" cy="579.245" r="5.515" fill="#b1a759"/><circle cx="82.745" cy="579.245" r="6.575" fill="#769092"/><circle cx="193.08499999999998" cy="579.255" r="8.695" fill="#495e61"/><circle cx="303.415" cy="579.2550000000001" r="10.815" fill="#6b888b"/><circle cx="413.75" cy="579.25" r="12.93" fill="#87936b"/><circle cx="634.4150000000001" cy="579.255" r="14.345" fill="#758f91"/><circle cx="855.085" cy="579.2550000000001" r="10.815" fill="#a2aeac"/><circle cx="910.255" cy="579.255" r="9.755" fill="#455559"/><circle cx="82.745" cy="634.415" r="6.045" fill="#46575b"/><circle cx="303.415" cy="634.415" r="8.165" fill="#c7c8c3"/><circle cx="579.25" cy="634.42" r="9.93" fill="#526e72"/><circle cx="799.9150000000001" cy="634.4150000000001" r="8.695" fill="#b9bebb"/><circle cx="855.0849999999999" cy="634.415" r="8.165" fill="#688378"/><circle cx="910.245" cy="634.415" r="7.635" fill="#435255"/><circle cx="1075.7450000000001" cy="634.415" r="6.045" fill="#7d8d6f"/></g></svg>